# xmcd
#
# Track frame offsets:
#	150
#	9535
#	21642
#	30775
#	42072
#	52597
#	61642
#	71945
#	83637
#	94527
#	108695
#	119910
#	132592
#	143115
#	154450
#	166485
#
# Disc length: 2386 seconds
#
# Revision: 0
# Processed by: cddbd v1.5PL3 Copyright (c) Steve Scherf et al.
# Submitted via: dBpowerAMP V4.0
#
DISCID=d7095010
DTITLE=The Stanley Brothers and The Clinch Mountain Boys - Orange Blossom Special
DYEAR=1987
DGENRE=Bluegrass
TTITLE0=Clinch Mountain Blues
TTITLE1=Poison Lies
TTITLE2=You're Still On My Mind
TTITLE3=Tragic Love
TTITLE4=The Harbor Of Love
TTITLE5=Daybreak In Dixie
TTITLE6=Blue Moon Of Kentucky
TTITLE7=A Voice From On High
TTITLE8=Memories Of Mother
TTITLE9=I Long To See The Old Folks
TTITLE10=Orange Blossom Special
TTITLE11=Little Magie
TTITLE12=Baby Girl
TTITLE13=Nobody's Love Like Mine
TTITLE14=Our Last Goodbye
TTITLE15=Hard Times
EXTD=
EXTT0=
EXTT1=
EXTT2=
EXTT3=
EXTT4=
EXTT5=
EXTT6=
EXTT7=
EXTT8=
EXTT9=
EXTT10=
EXTT11=
EXTT12=
EXTT13=
EXTT14=
EXTT15=
PLAYORDER=
